<?xml version="1.0" encoding="UTF-8" standalone="no"?>
<!DOCTYPE svg PUBLIC "-//W3C//DTD SVG 1.1//EN" "http://www.w3.org/Graphics/SVG/1.1/DTD/svg11.dtd">
<svg width="100%" height="100%" viewBox="0 0 1259 1137" version="1.1" xmlns="http://www.w3.org/2000/svg" xmlnsXlink="http://www.w3.org/1999/xlink" xmlSpace="preserve" xmlnsSerif="http://www.serif.com/" style="fill-rule:evenodd;clip-rule:evenodd;stroke-linecap:round;stroke-linejoin:round;stroke-miterlimit:1.5;">
    <g transform="matrix(1,0,0,1,-1545.85,-946.492)">
        <rect x="1555.38" y="956.019" width="1153.18" height="1044.29" style="fill:rgb(198,243,246);"/>
        <clipPath id="_clip1">
            <rect x="1555.38" y="956.019" width="1153.18" height="1044.29"/>
        </clipPath>
        <g clip-path="url(#_clip1)">
            <path d="M1464.25,1129.71C1461.57,1116.88 1500.41,1089.62 1513.86,1082.89C1561.75,1058.95 1648.86,1039.23 1697.69,1068.53C1810.08,1135.96 1832.31,1323.59 1971.53,1352.9C2070.54,1373.74 2182.66,1329.91 2229.1,1237.04C2258.51,1178.22 2242.83,1124.86 2309.52,1091.51C2445.66,1023.44 2515.12,1186.53 2620.7,1221.73C2661.39,1235.29 2750.62,1224.49 2759.54,1170.98C2764.15,1143.31 2767.1,1112.94 2769.11,1084.81C2771.52,1051.15 2777.7,1017.19 2775.81,983.313C2773.28,937.678 2756.66,845.979 2727.94,809.052C2689.32,759.394 2615.32,745.686 2556.55,739.157C2440.11,726.219 2321.54,729.295 2205.16,742.986C2171.07,746.997 2137.74,755.37 2103.66,759.264C2041.55,766.362 1979.82,769.332 1917.91,779.371C1886.93,784.395 1854.58,788.079 1823.12,787.03C1759.86,784.922 1684.82,761.624 1626.84,798.52C1522.9,864.667 1476.32,887.454 1456.41,1016.83C1451.59,1048.19 1411.17,1129.71 1464.25,1129.71Z" style="fill:rgb(248,255,203);"/>
            <path d="M1464.25,1129.71C1461.57,1116.88 1500.41,1089.62 1513.86,1082.89C1561.75,1058.95 1648.86,1039.23 1697.69,1068.53C1810.08,1135.96 1832.31,1323.59 1971.53,1352.9C2070.54,1373.74 2182.66,1329.91 2229.1,1237.04C2258.51,1178.22 2242.83,1124.86 2309.52,1091.51C2445.66,1023.44 2515.12,1186.53 2620.7,1221.73C2661.39,1235.29 2750.62,1224.49 2759.54,1170.98C2764.15,1143.31 2767.1,1112.94 2769.11,1084.81C2771.52,1051.15 2777.7,1017.19 2775.81,983.313C2773.28,937.678 2756.66,845.979 2727.94,809.052C2689.32,759.394 2615.32,745.686 2556.55,739.157C2440.11,726.219 2321.54,729.295 2205.16,742.986C2171.07,746.997 2137.74,755.37 2103.66,759.264C2041.55,766.362 1979.82,769.332 1917.91,779.371C1886.93,784.395 1854.58,788.079 1823.12,787.03C1759.86,784.922 1684.82,761.624 1626.84,798.52C1522.9,864.667 1476.32,887.454 1456.41,1016.83C1451.59,1048.19 1411.17,1129.71 1464.25,1129.71ZM1460.57,1125.69C1455.1,1125.22 1450.95,1123.64 1447.94,1121.06C1442.38,1116.29 1440.81,1108.37 1441.03,1099.1C1441.66,1072.76 1457.35,1036.12 1460.23,1017.41C1479.9,889.525 1526.16,867.166 1628.91,801.778C1657.22,783.765 1689.72,780.565 1722.84,782.007C1756.76,783.483 1791.35,789.835 1823,790.89C1854.7,791.947 1887.3,788.247 1918.53,783.183C1980.38,773.154 2042.05,770.192 2104.1,763.1C2138.18,759.206 2171.52,750.833 2205.61,746.822C2321.7,733.164 2439.98,730.089 2556.12,742.995C2613.94,749.419 2686.89,762.565 2724.89,811.423C2753.25,847.881 2769.45,938.471 2771.96,983.527C2773.83,1017.24 2767.65,1051.03 2765.26,1084.53C2763.26,1112.55 2760.32,1142.79 2755.73,1170.34C2752.38,1190.44 2736.76,1203.94 2717.03,1212.31C2686.38,1225.3 2645.66,1225.97 2621.92,1218.06C2569.51,1200.59 2526.17,1151.23 2478.93,1114.83C2430.2,1077.28 2377.51,1053.19 2307.8,1088.05C2273.26,1105.32 2260.04,1127.77 2251.66,1153.53C2243.62,1178.22 2240.25,1206.1 2225.64,1235.32C2179.98,1326.63 2069.68,1369.62 1972.33,1349.12C1903.79,1334.69 1864.26,1281.05 1827.82,1222.96C1790.49,1163.43 1756.38,1099.23 1699.68,1065.22C1679.56,1053.14 1653.15,1049.04 1625.52,1050.17C1584.72,1051.84 1541.27,1064.87 1512.13,1079.44C1502.46,1084.27 1480.01,1099.46 1468.35,1112.65C1465.09,1116.34 1462.65,1119.91 1461.38,1123.09C1461.02,1123.98 1460.75,1124.85 1460.57,1125.69L1460.57,1125.69Z" style="fill:rgb(248,255,203);"/>
            <g transform="matrix(-1,1.249e-16,-1.249e-16,-1,4295.64,2863.94)">
                <path d="M1464.25,1129.71C1461.57,1116.88 1500.41,1089.62 1513.86,1082.89C1561.75,1058.95 1648.86,1039.23 1697.69,1068.53C1810.08,1135.96 1832.31,1323.59 1971.53,1352.9C2070.54,1373.74 2182.66,1329.91 2229.1,1237.04C2258.51,1178.22 2242.83,1124.86 2309.52,1091.51C2445.66,1023.44 2515.12,1186.53 2620.7,1221.73C2661.39,1235.29 2750.62,1224.49 2759.54,1170.98C2764.15,1143.31 2767.1,1112.94 2769.11,1084.81C2771.52,1051.15 2777.7,1017.19 2775.81,983.313C2773.28,937.678 2756.66,845.979 2727.94,809.052C2689.32,759.394 2615.32,745.686 2556.55,739.157C2440.11,726.219 2321.54,729.295 2205.16,742.986C2171.07,746.997 2137.74,755.37 2103.66,759.264C2041.55,766.362 1979.82,769.332 1917.91,779.371C1886.93,784.395 1854.58,788.079 1823.12,787.03C1759.86,784.922 1684.82,761.624 1626.84,798.52C1522.9,864.667 1476.32,887.454 1456.41,1016.83C1451.59,1048.19 1411.17,1129.71 1464.25,1129.71Z" style="fill:rgb(248,255,203);"/>
                <path d="M1464.25,1129.71C1461.57,1116.88 1500.41,1089.62 1513.86,1082.89C1561.75,1058.95 1648.86,1039.23 1697.69,1068.53C1810.08,1135.96 1832.31,1323.59 1971.53,1352.9C2070.54,1373.74 2182.66,1329.91 2229.1,1237.04C2258.51,1178.22 2242.83,1124.86 2309.52,1091.51C2445.66,1023.44 2515.12,1186.53 2620.7,1221.73C2661.39,1235.29 2750.62,1224.49 2759.54,1170.98C2764.15,1143.31 2767.1,1112.94 2769.11,1084.81C2771.52,1051.15 2777.7,1017.19 2775.81,983.313C2773.28,937.678 2756.66,845.979 2727.94,809.052C2689.32,759.394 2615.32,745.686 2556.55,739.157C2440.11,726.219 2321.54,729.295 2205.16,742.986C2171.07,746.997 2137.74,755.37 2103.66,759.264C2041.55,766.362 1979.82,769.332 1917.91,779.371C1886.93,784.395 1854.58,788.079 1823.12,787.03C1759.86,784.922 1684.82,761.624 1626.84,798.52C1522.9,864.667 1476.32,887.454 1456.41,1016.83C1451.59,1048.19 1411.17,1129.71 1464.25,1129.71ZM1460.57,1125.69C1455.1,1125.22 1450.95,1123.64 1447.94,1121.06C1442.38,1116.29 1440.81,1108.37 1441.03,1099.1C1441.66,1072.76 1457.35,1036.12 1460.23,1017.41C1479.9,889.525 1526.16,867.166 1628.91,801.778C1657.22,783.765 1689.72,780.565 1722.84,782.007C1756.76,783.483 1791.35,789.835 1823,790.89C1854.7,791.947 1887.3,788.247 1918.53,783.183C1980.38,773.154 2042.05,770.192 2104.1,763.1C2138.18,759.206 2171.52,750.833 2205.61,746.822C2321.7,733.164 2439.98,730.089 2556.12,742.995C2613.94,749.419 2686.89,762.565 2724.89,811.423C2753.25,847.881 2769.45,938.471 2771.96,983.527C2773.83,1017.24 2767.65,1051.03 2765.26,1084.53C2763.26,1112.55 2760.32,1142.79 2755.73,1170.34C2752.38,1190.44 2736.76,1203.94 2717.03,1212.31C2686.38,1225.3 2645.66,1225.97 2621.92,1218.06C2569.51,1200.59 2526.17,1151.23 2478.93,1114.83C2430.2,1077.28 2377.51,1053.19 2307.8,1088.05C2273.26,1105.32 2260.04,1127.77 2251.66,1153.53C2243.62,1178.22 2240.25,1206.1 2225.64,1235.32C2179.98,1326.63 2069.68,1369.62 1972.33,1349.12C1903.79,1334.69 1864.26,1281.05 1827.82,1222.96C1790.49,1163.43 1756.38,1099.23 1699.68,1065.22C1679.56,1053.14 1653.15,1049.04 1625.52,1050.17C1584.72,1051.84 1541.27,1064.87 1512.13,1079.44C1502.46,1084.27 1480.01,1099.46 1468.35,1112.65C1465.09,1116.34 1462.65,1119.91 1461.38,1123.09C1461.02,1123.98 1460.75,1124.85 1460.57,1125.69L1460.57,1125.69Z" style="fill:rgb(248,255,203);"/>
            </g>
        </g>
        <rect x="1555.38" y="956.019" width="1153.18" height="1044.29" style="fill:none;stroke:black;stroke-width:19.05px;"/>
        <path d="M2795,2073.29L1641.82,2073.29L1555.38,2000.31L2708.56,2000.31L2708.56,956.019L2795,1029L2795,2073.29L2708.56,2000.31" style="stroke:black;stroke-width:19.05px;"/>
        <path d="M2575.5,1954.08L1700.44,1955L1916.89,1689L2283.83,1688.25L2365.74,1588.31L2505.58,1588.31L2575.5,1658.23L2575.5,1954.08Z" style="fill:rgb(198,243,246);"/>
        <path d="M2575.5,1954.08L1700.44,1955L1916.89,1689L2283.83,1688.25L2365.74,1588.31L2505.58,1588.31L2575.5,1658.23L2575.5,1954.08ZM2552.58,1931.19C2552.58,1931.19 1928.94,1931.84 1748.67,1932.03C1748.67,1932.03 1927.8,1711.89 1927.8,1711.89C1988.6,1711.77 2283.87,1711.17 2283.87,1711.17L2294.69,1711.14L2376.59,1611.22C2376.59,1611.22 2496.09,1611.22 2496.09,1611.22C2496.09,1611.22 2552.58,1667.72 2552.58,1667.72L2552.58,1931.19Z"/>
        <path d="M2250.05,1938.4L2563.26,1938.4L2563.26,1668L2498.88,1600L2376,1600L2295.83,1703L2379.26,1787.74L2250.05,1897L2250.05,1938.4" style="stroke:black;stroke-width:22.92px;stroke-linecap:square;"/>
        <g transform="matrix(1.41597,0,0,1.30303,-224.773,-441.515)">
            <path d="M1850,1160L1969,1308.5L1850,1457L1731,1308.5L1850,1160Z" style="fill:rgb(198,243,246);"/>
            <path d="M1850,1160L1969,1308.5L1850,1457L1731,1308.5L1850,1160ZM1850,1186.78L1947.54,1308.5C1926.26,1335.05 1873.87,1400.43 1850,1430.22C1826.13,1400.43 1773.74,1335.05 1752.46,1308.5L1850,1186.78Z"/>
        </g>
        <g transform="matrix(0.651271,0,0,0.599327,1189.41,558.36)">
            <path d="M1850,1160L1969,1308.5L1850,1457L1731,1308.5L1850,1160Z"/>
            <path d="M1850,1160L1969,1308.5L1850,1457L1731,1308.5L1850,1160ZM1850,1218.23L1922.34,1308.5C1922.34,1308.5 1850,1398.77 1850,1398.77C1850,1398.77 1777.66,1308.5 1777.66,1308.5L1850,1218.23Z"/>
        </g>
        <g transform="matrix(1.69381,0,0,1.5997,-1298.5,-784.701)">
            <path d="M1850,1160L1969,1308.5L1850,1457L1731,1308.5L1850,1160Z"/>
            <path d="M1850,1160L1969,1308.5L1850,1457L1731,1308.5L1850,1160ZM1850,1182.14L1951.26,1308.5C1951.26,1308.5 1850,1434.86 1850,1434.86C1850,1434.86 1773.25,1339.08 1748.74,1308.5L1850,1182.14Z"/>
        </g>
        <g transform="matrix(1,0,0,1,-14.9544,0)">
            <path d="M1850,1160L1969,1308.5L1850,1457L1731,1308.5L1850,1160Z" style="fill:rgb(198,243,246);stroke:black;stroke-width:22.92px;stroke-linecap:butt;"/>
        </g>
        <g transform="matrix(0.919888,0.392181,-0.392181,0.919888,1308.95,-189.333)">
            <path d="M1958,1294.34L2023,1446.8" style="fill:none;stroke:black;stroke-width:19.05px;stroke-linecap:butt;"/>
        </g>
        <g transform="matrix(0.76975,0.638346,-0.936885,1.12974,1138.67,-699.048)">
            <path d="M2094,956.019L2094,1080" style="fill:none;stroke:black;stroke-width:15.17px;stroke-linecap:butt;"/>
        </g>
        <g transform="matrix(0.82836,0.827668,-0.706811,0.707402,1387.47,-1889.71)">
            <path d="M2708.56,1526L2617,1526" style="fill:none;stroke:black;stroke-width:17.5px;stroke-linecap:butt;"/>
        </g>
        <g transform="matrix(0.927267,1.80411e-16,-5.73153e-15,1,-488.798,142.9)">
            <path d="M2708.56,1526L2617,1526" style="fill:none;stroke:black;stroke-width:19.76px;stroke-linecap:butt;"/>
        </g>
        <g transform="matrix(1.02761,1.02675,-0.706811,0.707402,39.3658,-2213.52)">
            <path d="M2708.56,1526L2617,1526" style="fill:none;stroke:black;stroke-width:15.28px;stroke-linecap:butt;"/>
        </g>
        <g transform="matrix(-1.02718,1.02718,-0.707107,-0.707107,5799.21,-505.87)">
            <path d="M2708.56,1526L2617,1526" style="fill:none;stroke:black;stroke-width:15.28px;stroke-linecap:butt;"/>
        </g>
        <g transform="matrix(0.515272,0,0,0.442112,1180.08,944.15)">
            <path d="M1850,1457L1969,1308.5L1850,1160" style="fill:none;stroke:black;stroke-width:47.73px;stroke-linecap:square;"/>
        </g>
        <g transform="matrix(1,0,0,1,27.5,-26)">
            <path d="M2394.76,1089L2548,1263.5" style="fill:none;stroke:black;stroke-width:22.92px;stroke-linecap:butt;"/>
        </g>
        <g transform="matrix(0.830336,-0.193209,-0.193209,0.779979,699.206,683.293)">
            <path d="M2394.76,1089L2548,1263.5" style="fill:none;stroke:black;stroke-width:37.42px;stroke-linecap:butt;"/>
        </g>
        <g transform="matrix(0.120609,0.92135,-0.841037,-0.117401,2643.78,-674.858)">
            <path d="M2367.12,1079.94L2559.59,1266.77" style="fill:none;stroke:black;stroke-width:30.02px;stroke-linecap:butt;"/>
        </g>
        <g transform="matrix(1,0,0,1,-47.9975,-44.996)">
            <path d="M2112,1063C2140.69,1063 2163.99,1086.3 2163.99,1115C2163.99,1143.69 2140.69,1166.99 2112,1166.99C2083.3,1166.99 2060,1143.69 2060,1115C2060,1086.3 2083.3,1063 2112,1063ZM2112,1083.33C2129.48,1083.33 2143.67,1097.52 2143.67,1115C2143.67,1132.48 2129.48,1146.67 2112,1146.67C2094.52,1146.67 2080.32,1132.48 2080.32,1115C2080.32,1097.52 2094.52,1083.33 2112,1083.33Z"/>
        </g>
    </g>
</svg>
