<?xml version="1.0" encoding="UTF-8" standalone="no"?>
<!DOCTYPE svg PUBLIC "-//W3C//DTD SVG 1.1//EN" "http://www.w3.org/Graphics/SVG/1.1/DTD/svg11.dtd">
<svg width="100%" height="100%" viewBox="0 0 1259 1145" version="1.1" xmlns="http://www.w3.org/2000/svg" xmlnsXlink="http://www.w3.org/1999/xlink" xmlSpace="preserve" xmlnsSerif="http://www.serif.com/" style="fill-rule:evenodd;clip-rule:evenodd;stroke-linecap:round;stroke-linejoin:round;stroke-miterlimit:1.5;">
    <g transform="matrix(1,0,0,1,-1545.69,-938.743)">
        <rect x="1555.38" y="956.019" width="1153.18" height="1044.29" style="fill:rgb(13,0,35);stroke:rgb(176,114,195);stroke-width:19.05px;"/>
        <path d="M2795,2073.29L1641.82,2073.29L1555.38,2000.31L2708.56,2000.31L2708.56,956.019L2795,1029L2795,2073.29L2708.56,2000.31" style="fill:rgb(13,0,35);stroke:rgb(176,114,195);stroke-width:19.05px;"/>
        <g transform="matrix(1,0,0,1,-10,-7)">
            <path d="M2590,1401L2590,1243.08" style="fill:none;stroke:rgb(176,114,195);stroke-width:19.17px;stroke-linecap:square;stroke-linejoin:miter;"/>
        </g>
        <g transform="matrix(1,0,0,1,26.843,-7)">
            <path d="M2590,1401L2590,1243.08" style="fill:none;stroke:rgb(176,114,195);stroke-width:19.17px;stroke-linecap:square;stroke-linejoin:miter;"/>
        </g>
        <g transform="matrix(1,0,0,1,-938.488,599.306)">
            <path d="M2590,1401L2590,1243.08" style="fill:none;stroke:rgb(176,114,195);stroke-width:19.17px;stroke-linecap:square;stroke-linejoin:miter;"/>
        </g>
        <g transform="matrix(3.43314e-17,1,-0.560674,6.12323e-17,2348.47,-747.618)">
            <path d="M2590,1401L2590,1243.08" style="fill:none;stroke:rgb(176,114,195);stroke-width:23.64px;stroke-linecap:square;stroke-linejoin:miter;"/>
        </g>
        <g transform="matrix(-4.85723e-16,1,-0.583658,-2.84495e-16,3102.69,-1045.12)">
            <path d="M2590,1401L2590,1243.08" style="fill:none;stroke:rgb(176,114,195);stroke-width:23.41px;stroke-linecap:square;stroke-linejoin:miter;"/>
        </g>
        <g transform="matrix(6.12323e-17,1,-1,6.12323e-17,3741.29,-1526.13)">
            <path d="M2590,1401L2590,1243.08" style="fill:none;stroke:rgb(176,114,195);stroke-width:19.17px;stroke-linecap:square;stroke-linejoin:miter;"/>
        </g>
        <g transform="matrix(6.12323e-17,1,-1,6.12323e-17,3137.91,-1559.75)">
            <path d="M2590,1401L2590,1243.08" style="fill:none;stroke:rgb(176,114,195);stroke-width:19.17px;stroke-linecap:square;stroke-linejoin:miter;"/>
        </g>
        <g transform="matrix(1,0,0,1,-955.868,-287.056)">
            <path d="M2590,1401L2590,1243.08" style="fill:none;stroke:rgb(176,114,195);stroke-width:19.17px;stroke-linecap:square;stroke-linejoin:miter;"/>
        </g>
        <g transform="matrix(1,0,0,0.527158,-682.868,921.078)">
            <path d="M2590,1401L2590,1243.08" style="fill:none;stroke:rgb(176,114,195);stroke-width:23.98px;stroke-linecap:square;stroke-linejoin:miter;"/>
        </g>
        <g transform="matrix(1,0,0,0.527158,-769.379,781.241)">
            <path d="M2590,1401L2590,1243.08" style="fill:none;stroke:rgb(176,114,195);stroke-width:23.98px;stroke-linecap:square;stroke-linejoin:miter;"/>
        </g>
        <g transform="matrix(1,0,0,0.527158,-100.745,746.595)">
            <path d="M2590,1401L2590,1243.08" style="fill:none;stroke:rgb(176,114,195);stroke-width:23.98px;stroke-linecap:square;stroke-linejoin:miter;"/>
        </g>
        <g transform="matrix(-0.744931,-9.12277e-17,9.12277e-17,-0.744931,3835.08,2228.06)">
            <path d="M1930.61,1230L1930.61,1103L1715,1103L1715,1514.65L2047,1514.65L2047,1230.6L1930.61,1230Z" style="fill:none;"/>
            <clipPath id="_clip1">
                <path d="M1930.61,1230L1930.61,1103L1715,1103L1715,1514.65L2047,1514.65L2047,1230.6L1930.61,1230Z"/>
            </clipPath>
            <g clip-path="url(#_clip1)">
                <g transform="matrix(-1.47801,1.81003e-16,-1.08789e-16,-0.888332,5414.85,2435.4)">
                    <rect x="2310.2" y="1253.08" width="122.25" height="189.207" style="fill:rgb(176,114,195);"/>
                    <path d="M2432.45,1253.08L2310.2,1253.08L2310.2,1442.28L2432.45,1442.28L2432.45,1253.08ZM2415.05,1282.04L2415.05,1413.32C2415.05,1413.32 2327.61,1413.32 2327.61,1413.32C2327.61,1413.32 2327.61,1282.04 2327.61,1282.04L2415.05,1282.04Z" style="fill:rgb(176,114,195);"/>
                </g>
            </g>
            <path d="M1930.61,1230L1930.61,1103L1715,1103L1715,1514.65L2047,1514.65L2047,1230.6L1930.61,1230ZM1904.88,1230L1904.88,1255.6L2021.27,1256.19C2021.27,1256.19 2021.27,1488.92 2021.27,1488.92L1740.73,1488.92C1740.73,1488.92 1740.73,1215.05 1740.73,1128.73C1740.73,1128.73 1904.88,1128.73 1904.88,1128.73C1904.88,1128.73 1904.88,1230 1904.88,1230Z" style="fill:rgb(176,114,195);"/>
        </g>
        <g transform="matrix(-0.919255,-1.12576e-16,1.12576e-16,-0.919255,3585.74,2456.22)">
            <path d="M2044.82,1103L1869.64,1103L1871.77,1279.23L1715,1279.45L1715,1514.65L2047,1514.65L2044.82,1103Z" style="fill:none;"/>
            <clipPath id="_clip2">
                <path d="M2044.82,1103L1869.64,1103L1871.77,1279.23L1715,1279.45L1715,1514.65L2047,1514.65L2044.82,1103Z"/>
            </clipPath>
            <g clip-path="url(#_clip2)">
                <g transform="matrix(-1.08784,1.33222e-16,-1.33222e-16,-1.08784,3900.7,2671.97)">
                    <rect x="1788" y="1187" width="165.217" height="193" style="fill:rgb(176,114,195);"/>
                    <path d="M1953.22,1187L1788,1187L1788,1380L1953.22,1380L1953.22,1187ZM1934.05,1206.17L1934.05,1360.83C1934.05,1360.83 1807.17,1360.83 1807.17,1360.83C1807.17,1360.83 1807.17,1251.37 1807.17,1206.17L1934.05,1206.17Z" style="fill:rgb(176,114,195);"/>
                </g>
            </g>
            <path d="M2044.82,1103L1869.64,1103L1871.77,1279.23L1715,1279.45L1715,1514.65L2047,1514.65L2044.82,1103ZM2024.08,1123.85L2026.04,1493.8L1735.85,1493.8C1735.85,1449.18 1735.85,1344.87 1735.85,1300.27C1735.85,1300.27 1892.87,1300.05 1892.87,1300.05L1890.74,1123.85L2024.08,1123.85Z" style="fill:rgb(176,114,195);"/>
        </g>
        <g transform="matrix(1,0,0,0.513113,52.6622,721.875)">
            <path d="M2124.01,1516.33L2124.01,1406.4L2028,1406.4L2028,1516.33L1920.02,1516.33L1920.02,1683.67L2241.33,1683.67L2241.33,1516.33L2124.01,1516.33ZM2104.84,1516.33L2104.84,1553.68L2222.16,1553.68C2222.16,1553.68 2222.16,1646.32 2222.16,1646.32C2165.03,1646.32 1996.32,1646.32 1939.18,1646.32C1939.18,1646.32 1939.18,1553.68 1939.18,1553.68C1939.18,1553.68 2047.17,1553.68 2047.17,1553.68L2047.17,1443.76C2047.17,1443.76 2104.84,1443.76 2104.84,1443.76C2104.84,1443.76 2104.84,1516.33 2104.84,1516.33Z" style="fill:rgb(176,114,195);"/>
        </g>
        <g transform="matrix(1,0,0,1,-59.3097,5)">
            <path d="M2557.52,1649L1809.11,1649L1809.11,1935L2557.52,1935L2557.52,1649ZM2538.36,1668.17L2538.36,1915.83C2433.77,1915.83 1932.86,1915.83 1828.27,1915.83C1828.27,1915.83 1828.27,1668.17 1828.27,1668.17C1828.27,1668.17 2538.36,1668.17 2538.36,1668.17L2538.36,1668.17Z" style="fill:rgb(176,114,195);"/>
        </g>
        <g transform="matrix(1,0,0,0.99816,-82.3254,-2.94521)">
            <rect x="2565" y="1660" width="90" height="286.527" style="fill:rgb(176,114,195);"/>
            <path d="M2655,1660L2565,1660L2565,1946.53L2655,1946.53L2655,1660ZM2635.83,1679.2L2635.83,1927.33C2635.83,1927.33 2584.17,1927.33 2584.17,1927.33C2584.17,1927.33 2584.17,1740.47 2584.17,1679.2L2635.83,1679.2Z" style="fill:rgb(176,114,195);"/>
        </g>
        <path d="M1768.45,1797L1856.62,1797L1856.62,1729L1918,1734L1936.28,1812L2070,1884L2091,1797L2188.98,1772L2188.98,1712L2293.99,1715L2344.95,1853L2482.68,1854" style="fill:none;stroke:rgb(176,114,195);stroke-width:19.17px;stroke-linejoin:miter;"/>
        <g transform="matrix(1,0,0,1,17.888,9.24883)">
            <path d="M2056,1022L2133.33,1160L2214.89,1021" style="fill:none;stroke:rgb(176,114,195);stroke-width:19.17px;stroke-linecap:square;stroke-linejoin:miter;"/>
        </g>
        <g transform="matrix(1.25175,0,0,1.25175,-519.7,-198.949)">
            <path d="M2056,1022L2133.33,1160L2214.89,1021" style="fill:none;stroke:rgb(176,114,195);stroke-width:15.31px;stroke-linecap:square;stroke-linejoin:miter;"/>
        </g>
        <g>
            <path d="M1651,1533L1704.02,1618" style="fill:none;stroke:rgb(176,114,195);stroke-width:19.17px;stroke-linecap:square;stroke-linejoin:miter;"/>
            <g transform="matrix(-0.0341421,0.999417,-0.999417,-0.0341421,3309.37,-47.2433)">
                <path d="M1651,1533L1704.02,1618" style="fill:none;stroke:rgb(176,114,195);stroke-width:19.17px;stroke-linecap:square;stroke-linejoin:miter;"/>
            </g>
        </g>
        <g transform="matrix(0.229685,0.547304,-0.595401,0.249869,2669.02,49.4007)">
            <path d="M1651,1533L1704.02,1618" style="fill:none;stroke:rgb(176,114,195);stroke-width:30.91px;stroke-linecap:square;stroke-linejoin:miter;"/>
            <g transform="matrix(-0.0341421,0.999417,-0.999417,-0.0341421,3309.37,-47.2433)">
                <path d="M1651,1533L1704.02,1618" style="fill:none;stroke:rgb(176,114,195);stroke-width:30.99px;stroke-linecap:square;stroke-linejoin:miter;"/>
            </g>
        </g>
        <g transform="matrix(0.830155,0.351449,-0.325644,0.769202,1146.34,-336.152)">
            <g transform="matrix(1,0,0,1,598.647,-153)">
                <path d="M1651,1533L1704.02,1618" style="fill:none;stroke:rgb(176,114,195);stroke-width:22.06px;stroke-linecap:square;stroke-linejoin:miter;"/>
            </g>
            <g transform="matrix(-0.0341421,0.999417,-0.999417,-0.0341421,3908.01,-200.243)">
                <path d="M1651,1533L1704.02,1618" style="fill:none;stroke:rgb(176,114,195);stroke-width:22px;stroke-linecap:square;stroke-linejoin:miter;"/>
            </g>
        </g>
    </g>
</svg>
