<?xml version="1.0" encoding="UTF-8" standalone="no"?>
<!DOCTYPE svg PUBLIC "-//W3C//DTD SVG 1.1//EN" "http://www.w3.org/Graphics/SVG/1.1/DTD/svg11.dtd">
<svg width="100%" height="100%" viewBox="0 0 1259 1137" version="1.1" xmlns="http://www.w3.org/2000/svg" xmlnsXlink="http://www.w3.org/1999/xlink" xmlSpace="preserve" xmlnsSerif="http://www.serif.com/" style="fill-rule:evenodd;clip-rule:evenodd;stroke-linecap:round;stroke-linejoin:round;stroke-miterlimit:1.5;">
    <g transform="matrix(1,0,0,1,-1545.79,-946.492)">
        <rect x="1555.38" y="956.019" width="1153.18" height="1044.29" style="fill:rgb(105,158,255);stroke:black;stroke-width:19.05px;"/>
        <path d="M2795,2073.29L1641.82,2073.29L1555.38,2000.31L2708.56,2000.31L2708.56,956.019L2795,1029L2795,2073.29L2708.56,2000.31" style="fill:rgb(105,158,255);stroke:black;stroke-width:19.05px;"/>
        <path d="M2429.34,1082.72L2505,1096L2565,1011" style="fill:none;stroke:black;stroke-width:19.17px;"/>
        <g transform="matrix(1,0,0,1,-6.82121e-13,8.5)">
            <path d="M1555.38,2000.31L2708.56,2000.31L2708.56,1565L2432.45,1424L2267.79,1600L2047.98,1362L1870,1532.5L1713,1424L1555.38,1532.5L1555.38,2000.31Z" style="fill:rgb(247,255,163);stroke:black;stroke-width:19.17px;"/>
        </g>
        <path d="M1754,1681.15L1685.8,1788.5L1733.14,1919" style="fill:none;stroke:black;stroke-width:19.17px;"/>
        <g transform="matrix(1,0,0,1,22.7963,-49.2748)">
            <path d="M1663,1262L1702,1133L1787,1255L1830,1132L1894.84,1234L1958.42,1288L1894.84,1352L1894.84,1424L1809.11,1362L1738,1406.4L1724,1299L1663,1262" style="fill:rgb(247,255,163);stroke:black;stroke-width:19.17px;stroke-linecap:square;"/>
        </g>
        <g transform="matrix(0.793147,0.828394,-0.828394,0.793147,2027.89,-1275.11)">
            <path d="M1663,1262L1702,1133L1787,1255L1830,1132L1894.84,1234L1958.42,1288L1894.84,1352L1894.84,1424L1809.11,1362L1738,1406.4L1724,1299L1663,1262" style="fill:rgb(247,255,163);stroke:black;stroke-width:16.71px;stroke-linecap:square;"/>
        </g>
        <path d="M2188.98,1424L2125.57,1452L2047.98,1424L2077.98,1478.16L2047.98,1565L2124.01,1514.65L2188.98,1565L2175.19,1478.16L2188.98,1424Z" style="fill:rgb(247,255,163);stroke:black;stroke-width:19.17px;stroke-linecap:square;"/>
        <g transform="matrix(1,0,0,1,61,4)">
            <path d="M1794,1660L1894.84,1783L1958.42,1738L2030,1656L2118.48,1708L2241.33,1637L2310.2,1750L2432.45,1644L2457.1,1904L2275.45,1837L2158,1928L2118.48,1817L2009.22,1908L1852,1891L1768.45,1899L1728,1817L1794,1660Z" style="fill:white;"/>
            <clipPath id="_clip1">
                <path d="M1794,1660L1894.84,1783L1958.42,1738L2030,1656L2118.48,1708L2241.33,1637L2310.2,1750L2432.45,1644L2457.1,1904L2275.45,1837L2158,1928L2118.48,1817L2009.22,1908L1852,1891L1768.45,1899L1728,1817L1794,1660Z"/>
            </clipPath>
            <g clip-path="url(#_clip1)">
                <g transform="matrix(1,0,0,1,-61,-4)">
                    <path d="M1833.51,1763.34L1768.45,1744.88L1730.5,1932L2583,1932L2508.72,1808.99L2374,1786.5L2275.45,1814L2214.89,1764L2047.98,1843L1953.22,1840L1894.84,1805L1817.74,1752.63" style="fill:rgb(105,158,255);stroke:black;stroke-width:19.17px;"/>
                </g>
            </g>
            <path d="M1794,1660L1894.84,1783L1958.42,1738L2030,1656L2118.48,1708L2241.33,1637L2310.2,1750L2432.45,1644L2457.1,1904L2275.45,1837L2158,1928L2118.48,1817L2009.22,1908L1852,1891L1768.45,1899L1728,1817L1794,1660Z" style="fill:none;stroke:black;stroke-width:19.17px;stroke-linecap:square;"/>
        </g>
        <path d="M1672,1478.16L1727,1478.16L1746,1529L1789,1514.65" style="fill:none;stroke:black;stroke-width:19.17px;"/>
        <path d="M2482.68,1465L2457.1,1514.65L2505,1541L2482.68,1600" style="fill:none;stroke:black;stroke-width:19.17px;"/>
        <path d="M2565,1156L2541.61,1274L2541.61,1362" style="fill:none;stroke:black;stroke-width:19.17px;"/>
        <path d="M2708.56,2000.31L2795,2073.29L1644.73,2073.29L1555.38,2000.31L2708.56,2000.31Z" style="fill:rgb(247,255,163);stroke:black;stroke-width:19.17px;"/>
        <path d="M2241.33,1011L2188.45,1156L2047.98,1082.72L2009.22,1156" style="fill:none;stroke:black;stroke-width:19.17px;"/>
        <path d="M1779,1374.73L1833.51,1348L1894.84,1393" style="fill:none;stroke:black;stroke-width:19.17px;"/>
        <path d="M1809.11,1658L1730.5,1805.51L1779,1919" style="fill:none;stroke:black;stroke-width:19.17px;"/>
        <path d="M2541.61,1658L2565,1902.19" style="fill:none;stroke:black;stroke-width:19.17px;"/>
        <path d="M2795,1628L2795,2073.29L2708.56,2000.31L2708.56,1573.5L2795,1628Z" style="fill:rgb(247,255,163);stroke:black;stroke-width:19.17px;"/>
        <path d="M2677,1156L2677,1362" style="fill:none;stroke:black;stroke-width:19.17px;"/>
        <path d="M1596,1259L1596,1424" style="fill:none;stroke:black;stroke-width:19.17px;"/>
        <path d="M1555.38,1083.5L1606,1033.45L1652,1083.5L1719.9,1033.45" style="fill:none;stroke:black;stroke-width:19.17px;"/>
        <g transform="matrix(-0.998796,0.0490593,-0.0490593,-0.998796,5391.03,3670.77)">
            <path d="M2708.56,1805.51L2677,1892L2627,1838.44L2623,1957" style="fill:none;stroke:black;stroke-width:19.17px;"/>
        </g>
        <path d="M1836.92,1932L1911.21,1922.56L2037,1944" style="fill:none;stroke:black;stroke-width:19.17px;"/>
        <path d="M2618,1587L2677,1618L2648,1669L2659,1732L2608,1681.15L2618,1587Z" style="fill:rgb(105,158,255);stroke:black;stroke-width:19.17px;"/>
        <path d="M1637.64,1587L1672,1617L1685.8,1573.5L1730.5,1600L1730.5,1658L1685.8,1658L1663,1689.65L1651,1641L1619,1621L1637.64,1587Z" style="fill:rgb(105,158,255);stroke:black;stroke-width:19.17px;"/>
        <g transform="matrix(0.764706,0,0,1,646.545,-2.62901e-13)">
            <rect x="2736" y="1156" width="34" height="268" style="fill:rgb(247,255,163);stroke:black;stroke-width:21.53px;"/>
        </g>
    </g>
</svg>
