<svg viewBox="0 0 1259 1137" xmlns="http://www.w3.org/2000/svg" xml:space="preserve" fill-rule="evenodd" clip-rule="evenodd" stroke-linecap="round" stroke-linejoin="round" stroke-miterlimit="1.5">
  <path fill="#98edd6" stroke="#000" stroke-width="19.05" d="M9.59 9.527h1153.18v1044.29H9.59z"/>
  <path d="M1249.21 1126.798H96.03l-86.44-72.98h1153.18V9.527l86.44 72.981v1044.29l-86.44-72.98" fill="#98edd6" stroke="#000" stroke-width="19.05"/>
  <path stroke="#000" stroke-width="19.17" d="M184.21 274.081H441.8v257.59H184.21zM718.21 274.081H975.8v257.59H718.21z"/>
  <path fill="none" stroke="#000" stroke-width="19.17" d="M82.948 172.825h460.098v460.098H82.948zM616.948 172.825h460.098v460.098H616.948zM543.05 416.508h73.9M1077.05 416.508h73.9"/>
  <path d="M2088.84 1363h73.9" fill="none" stroke="#000" stroke-width="19.24" transform="matrix(.99272 0 0 1 -2064.046 -946.492)"/>
  <path fill="#ff9a4d" stroke="#000" stroke-width="19.17" d="M786.5 301.345h121v115.163h-121zM252.5 402.329h121v115.163h-121z"/>
  <path d="M184.21 130.508h302M184.21 96.508h302M696.002 96.508h302M696.002 130.508h302" fill="none" stroke="#000" stroke-width="19.17"/>
  <path d="M124.21 790.868H228.5v136.28H124.21v76.36h952.84v-126h-163v-163H124.21v76.36Z" fill="#ff9a4d" stroke="#000" stroke-width="19.17"/>
  <path d="M914.05 877.508H228.5M373.5 794.508v136M508.5 794.508v136M643.193 794.508v136M777.886 794.508v136M959.21 714.508v128M1049.72 467.671v128M959.21 749.25l90.51 90.51M959.21 842.508h117.84" fill="none" stroke="#000" stroke-width="19.17"/>
</svg>
