<svg viewBox="0 0 1259 1137" xmlns="http://www.w3.org/2000/svg" xml:space="preserve" fill-rule="evenodd" clip-rule="evenodd" stroke-linecap="round" stroke-linejoin="round" stroke-miterlimit="1.5">
  <path fill="gray" stroke="#000" stroke-width="19.05" d="M9.53 9.527h1153.18v1044.29H9.53z"/>
  <path d="M1249.15 1126.798H95.97l-86.44-72.98h1153.18V9.527l86.44 72.981v1044.29l-86.44-72.98" fill="gray" stroke="#000" stroke-width="19.05"/>
  <path d="M2677 1156v206" fill="none" stroke="#000" stroke-width="22.94" stroke-linecap="butt" transform="matrix(.67444 -.73833 .4649 .42468 -1851.201 2009.998)"/>
  <path d="m1054.157 258.905-148.449-2.97V153.507H690.457l-19.298 92.038-1.485 155.872 87.585 58.489 51.957-108.962 59.38 63.833 185.561-155.871ZM94.664 258.905l148.449-2.97V153.507h215.251l19.298 92.038 1.485 155.872-87.585 58.489-51.957-108.962-59.38 63.833L94.664 258.905Z" fill="#69bac9" stroke="#000" stroke-width="19.164765900000003" stroke-linejoin="miter"/>
  <path d="m1126.956 979.561-43.359-73.241-60.446-101.814-110.1 6.545-57.476-87.321-74.236 11.581 50.74 30.137 49.194 91.574 101.872 96.486 71.003 49.996 72.808-23.943ZM754.15 531.668l-84.48-71.76-82.19 193.6-70.14 310.28v53.72l186.81-14 50-107.41v-364.43Z" fill="#ff9a4d" stroke="#000" stroke-width="19.17" stroke-linecap="butt" stroke-linejoin="miter"/>
  <path d="m94.67 459.908 59.48 71.76 100 221.84-159.48 100-40.52-228.61 40.52-164.99Z" fill="#ff9a4d" stroke="#000" stroke-width="19.17" stroke-linecap="square" stroke-linejoin="bevel"/>
  <path d="m154.15 531.668 233 221.84 67-221.84 131.97 121.84h119.03l49-121.84h107.76l111.24-71.76 81 138.6-100 55 69 151-40 149-168-42-95-24-134.03 66-231.97 34.67-67.24-98.67-132.76 114-59.48-150 89.48-75-89.48-165 59.48-81.84Z" fill="#69bac9" stroke="#000" stroke-width="19.17" stroke-linejoin="miter"/>
  <path d="m337.67 600.303 29.242 72.822" fill="none" stroke="#000" stroke-width="19.165637800000002" stroke-linecap="butt" stroke-linejoin="miter"/>
  <path d="m2540 600 108-100" fill="none" stroke="#000" stroke-width="37.49" stroke-linecap="butt" stroke-linejoin="miter" transform="matrix(.50318 .18677 -.22805 .48192 -829.826 -113.808)"/>
  <path d="m114.192 206.932 79.372-90.393" fill="none" stroke="#000" stroke-width="19.1685682" stroke-linecap="butt" stroke-linejoin="miter"/>
  <path d="m2540 600 108-100" fill="none" stroke="#000" stroke-width="24.45" stroke-linecap="butt" stroke-linejoin="miter" transform="matrix(-.09273 -.81751 .817 -.02156 -54.672 2298.041)"/>
  <path d="M2540 490.918 2648 600" fill="none" stroke="#000" stroke-width="33.3" stroke-linecap="butt" stroke-linejoin="miter" transform="matrix(.5 0 0 .64247 -210.95 -222.892)"/>
  <path d="m2540 600 108-100" fill="none" stroke="#000" stroke-width="33.32" stroke-linecap="butt" stroke-linejoin="miter" transform="matrix(.52445 -.02909 -.02264 .6694 -264.371 -165.169)"/>
  <path d="M736.15 208.638h118l7.76 144.87-60.76-46.8-47 87.8-46-41-4-100 32-44.87ZM412.67 208.638h-118l-7.76 144.87 60.76-46.8 47 87.8 46-41 4-100-32-44.87Z" fill="#ff9a4d" stroke="#000" stroke-width="19.17" stroke-linecap="butt" stroke-linejoin="miter"/>
  <path d="m454.149 151.58 37.56-59.07 47.89 82.03M754.15 153.508v-36.97l-100-63.03" fill="none" stroke="#000" stroke-width="19.17" stroke-linecap="butt" stroke-linejoin="miter"/>
</svg>
