<?xml version="1.0" encoding="UTF-8" standalone="no"?>
<!DOCTYPE svg PUBLIC "-//W3C//DTD SVG 1.1//EN" "http://www.w3.org/Graphics/SVG/1.1/DTD/svg11.dtd">
<svg width="100%" height="100%" viewBox="0 0 1259 1137" version="1.1" xmlns="http://www.w3.org/2000/svg" xmlnsXlink="http://www.w3.org/1999/xlink" xmlSpace="preserve" xmlnsSerif="http://www.serif.com/" style="fill-rule:evenodd;clip-rule:evenodd;stroke-linecap:round;stroke-linejoin:round;stroke-miterlimit:1.5;">
    <g transform="matrix(1,0,0,1,-1545.85,-946.492)">
        <rect x="1555.38" y="956.019" width="1153.18" height="1044.29" style="fill:rgb(244,208,255);stroke:black;stroke-width:19.05px;"/>
        <path d="M2795,2073.29L1641.82,2073.29L1555.38,2000.31L2708.56,2000.31L2708.56,956.019L2795,1029L2795,2073.29L2708.56,2000.31" style="stroke:black;stroke-width:19.05px;"/>
        <g transform="matrix(1.38023,0,0,1.04533,-1818.58,188.746)">
            <path d="M3280,734L2862,734L2925.22,849.528L2800.45,973.322L2862,1049.48L2977.3,1182.41L2862,1350.52L2790.37,1444.97L2862,1588.1L2862,1733L3280,1733L3280,734Z" style="fill:rgb(176,114,195);stroke:black;stroke-width:15.56px;"/>
        </g>
        <g transform="matrix(0.876856,0,0,0.873256,273.189,165.585)">
            <rect x="2404" y="1117" width="231.561" height="231.561" style="fill:none;stroke:black;stroke-width:21.9px;"/>
        </g>
        <rect x="2422" y="1185" width="162.197" height="158.224" style="fill:none;stroke:black;stroke-width:19.17px;stroke-linecap:square;"/>
        <g transform="matrix(0.616692,0,0,0.567658,323.986,577.702)">
            <rect x="2404" y="1117" width="231.561" height="231.561" style="stroke:black;stroke-width:32.34px;"/>
        </g>
        <g transform="matrix(0.862848,0,0,0.873256,-324.773,165.585)">
            <rect x="2404" y="1117" width="231.561" height="231.561" style="fill:none;stroke:black;stroke-width:22.08px;"/>
        </g>
        <g transform="matrix(0.438428,0,0,0.436628,1428.69,754.405)">
            <rect x="2404" y="1117" width="231.561" height="231.561" style="stroke:black;stroke-width:43.81px;"/>
        </g>
        <g transform="matrix(0.369993,0,0,0.356498,943.241,862.465)">
            <rect x="2404" y="1117" width="231.561" height="231.561" style="fill:rgb(152,237,214);stroke:black;stroke-width:52.76px;"/>
        </g>
        <g transform="matrix(1.18373,0,0,1.24979,-1170.49,-342.191)">
            <rect x="2404" y="1117" width="231.561" height="231.561" style="fill:none;stroke:black;stroke-width:15.75px;"/>
        </g>
        <rect x="1792" y="1600" width="714.219" height="340" style="fill:rgb(152,237,214);stroke:black;stroke-width:19.17px;stroke-linecap:square;"/>
        <g transform="matrix(1,0,0,1,-5.20369,0)">
            <path d="M1981.97,1211.78L1981.97,1343.22" style="fill:none;stroke:black;stroke-width:19.17px;stroke-linejoin:bevel;"/>
        </g>
        <rect x="1875.54" y="1855" width="157.219" height="85" style="stroke:black;stroke-width:19.17px;stroke-linecap:square;"/>
        <rect x="2212" y="1600" width="158.661" height="85" style="stroke:black;stroke-width:19.17px;stroke-linecap:square;"/>
        <g transform="matrix(1.27519,0,0,1,-559.014,0)">
            <path d="M2010,1600L1875.54,1600L1875.54,1770L1911.04,1770L1911.04,1720L1978.01,1720L1978.03,1770L2010,1770L2010,1600Z" style="stroke:black;stroke-width:16.73px;stroke-linecap:square;"/>
        </g>
        <rect x="2299" y="1770" width="157" height="170" style="stroke:black;stroke-width:19.17px;stroke-linecap:square;"/>
        <g transform="matrix(0.235073,0,0,0.249281,1941.1,1007.05)">
            <rect x="2404" y="1117" width="231.561" height="231.561" style="fill:rgb(152,237,214);stroke:black;stroke-width:79.11px;"/>
        </g>
        <g transform="matrix(1.03668,0,0,1.25882,-92.5356,-436.118)">
            <rect x="2223" y="1642.5" width="51" height="42.5" style="fill:white;stroke:black;stroke-width:16.62px;stroke-linecap:square;"/>
        </g>
        <g transform="matrix(1,0,0,1,-9,-13)">
            <rect x="2308" y="1783" width="69.5" height="69.5" style="fill:white;stroke:black;stroke-width:19.17px;stroke-linecap:square;"/>
        </g>
        <g transform="matrix(1,0,0,1,-27.3481,-29)">
            <rect x="2004.11" y="1884" width="56" height="56" style="fill:white;stroke:black;stroke-width:19.17px;stroke-linecap:square;"/>
        </g>
        <g transform="matrix(0.985494,0,0,1,69.269,-22.4704)">
            <rect x="1918.38" y="1685" width="44.941" height="44.941" style="fill:white;stroke:black;stroke-width:19.31px;stroke-linecap:square;"/>
        </g>
        <path d="M1792,1804.75L2133.33,1804.75L2133.33,1730L2503.1,1731.98" style="fill:none;stroke:black;stroke-width:19.17px;"/>
    </g>
</svg>
